<svg xmlns="http://www.w3.org/2000/svg" width="42" height="13" viewBox="0 0 42 13" > <title>Intent.ai</title> <g fill="none" fill-rule="evenodd"> <path fill="#3A77EB" opacity=".25" d="M0 0h42v13H0z"/> <g fill="#FFF"> <path d="M24.493 5.134h1.366l.047.416c.055-.037.091-.055.118-.082.516-.508 1.135-.534 1.766-.327.602.197.866.686.88 1.296.02.839.005 1.678.008 2.517 0 .121-.028.191-.168.19-.404-.006-.808-.003-1.24-.003-.008-.114-.019-.21-.02-.308-.007-.652.003-1.305-.022-1.957-.018-.49-.226-.712-.608-.719-.413-.007-.703.273-.72.749a38.689 38.689 0 0 0-.011 1.957c.004.226-.064.296-.287.283-.32-.018-.64-.007-.961-.003-.124.002-.188-.037-.187-.173.004-1.254.006-2.508.009-3.763 0-.015.012-.03.03-.073M11.377 5.133h1.376l.046.454c.281-.325.59-.487.963-.538 1.062-.146 1.77.427 1.799 1.5.021.812.005 1.626.005 2.44 0 .04-.01.08-.02.152-.435 0-.863.006-1.29-.01-.046-.002-.126-.138-.127-.212-.01-.61-.005-1.22-.007-1.83a3.06 3.06 0 0 0-.02-.355c-.042-.357-.232-.548-.562-.575-.317-.025-.621.164-.708.461-.04.136-.054.283-.055.426-.006.618-.009 1.237.001 1.855.003.19-.057.252-.246.245-.328-.014-.657-.008-.986-.003-.133.002-.203-.034-.203-.184.004-1.245.003-2.49.005-3.736 0-.024.015-.047.03-.09M22.289 6.585c-.059-.457-.356-.689-.816-.664-.399.02-.68.288-.685.664h1.5zm-1.558.824c-.004.438.134.704.43.806.344.118.675.114.968-.16a.508.508 0 0 1 .3-.127c.377-.015.755-.006 1.163-.006a1.707 1.707 0 0 1-.5.869c-.749.725-2.69.714-3.41-.3-.518-.73-.55-1.52-.217-2.315.315-.75.941-1.102 1.737-1.15.243-.015.49-.017.73.016 1.295.176 1.737 1.272 1.735 2.208 0 .172-.11.159-.222.159H20.73zM10.395 4.383l-.555.025c.158.228.306.42.428.628.065.11.121.246.122.37.01 1.162 0 2.323.01 3.485.002.207-.068.263-.262.254a11.73 11.73 0 0 0-.962 0c-.182.008-.228-.06-.228-.235.005-1.95.005-3.9 0-5.85 0-.165.05-.223.217-.218.345.011.692.006 1.038.003.116-.002.195.02.194.163-.004.448-.002.897-.002 1.375M32.016 5.124c0 .363-.003.684.001 1.004.002.14-.071.168-.192.166-.293-.005-.587-.001-.877-.001-.008.036-.02.06-.013.067.303.318.3.71.289 1.113-.013.483-.009.967 0 1.45.002.163-.048.227-.216.222-.33-.01-.659-.012-.987 0-.182.007-.23-.062-.227-.235.007-.772.003-1.543.003-2.315v-.264c-.475-.096-.475-.096-.475-.58V5.14l.462-.028v-1.18h1.437c0 .328.009.648-.004.967-.007.18.058.241.233.228.175-.013.352-.003.566-.003M16.675 9.142V6.355c-.032-.027-.044-.045-.057-.046-.406-.053-.407-.053-.407-.47V5.14l.451-.03V3.93h1.435V5.12h.807c0 .374.006.718-.008 1.062-.002.04-.116.104-.18.107-.294.011-.588.005-.9.005.01.05.003.092.02.11.272.271.28.609.27.964-.016.516-.011 1.033 0 1.55.003.18-.059.233-.233.228-.386-.01-.772-.003-1.198-.003M33.3 8.717a.308.308 0 0 0 .303-.334c-.014-.19-.122-.293-.31-.3a.322.322 0 0 0-.326.319c.002.169.16.32.332.315m.802-1.048V9.1c-.066.008-.13.02-.193.022-.225.006-.442-.03-.675.04-.279.084-.595-.116-.732-.381-.14-.273-.097-.686.096-.909a.733.733 0 0 1 .802-.214c.075.025.165.009.249.01h.453M34.973 9.1c-.511.062-.511.062-.511-.404 0-.253.014-.507-.004-.759-.017-.223.057-.315.28-.28.073.01.147.01.235.016v1.426zM34.491 7.355c-.083-.514-.044-.554.477-.48v.48h-.477zM32.222 8.775c-.026.112-.024.249-.09.327-.039.046-.218.036-.275-.016-.054-.047-.074-.23-.032-.268.077-.07.21-.078.32-.11l.077.067"/> </g> </g> </svg>