<svg
      width="154"
      height="34"
      viewBox="0 0 154 34"
      xmlns="http://www.w3.org/2000/svg"
      fill="#000000"
    >
      <path
        d="M136 33V34H122L122.327 33H136ZM81.8751 26.446L83.5679 30.5057L85.2709 26.446H86.4801L83.9609 32.3762C83.4672 33.6197 82.782 34 81.8851 34C81.3511 34 80.7868 33.815 80.4442 33.4964L80.948 32.5509C81.1899 32.7873 81.5325 32.9311 81.8751 32.9311C82.3184 32.9311 82.5804 32.7153 82.8223 32.1706L82.9129 31.9548L80.5651 26.446H81.8751ZM118.9 26.446L120.593 30.5057L122.296 26.446H123.505L120.986 32.3762C120.492 33.6197 119.807 34 118.91 34C118.376 34 117.812 33.815 117.469 33.4964L117.973 32.5509C118.215 32.7873 118.557 32.9311 118.9 32.9311C119.343 32.9311 119.605 32.7153 119.847 32.1706L119.938 31.9548L117.59 26.446H118.9ZM110.97 26.3844C111.726 26.3844 112.391 26.631 112.834 27.1757V26.446H114.033V31.1017C114.033 33.0956 113.015 34 111.131 34C110.123 34 109.126 33.7328 108.511 33.2189L109.075 32.2528C109.549 32.6536 110.315 32.9106 111.06 32.9106C112.25 32.9106 112.774 32.3556 112.774 31.2456V30.9579C112.33 31.4512 111.695 31.6876 110.97 31.6876C109.428 31.6876 108.249 30.6187 108.249 29.0257C108.249 27.4327 109.428 26.3844 110.97 26.3844ZM89.1339 25.2333V26.4872H90.5748V27.5149H89.1339V30.1254C89.1339 30.6598 89.3959 30.9476 89.8795 30.9476C90.1415 30.9476 90.3934 30.8756 90.5849 30.7215L90.9376 31.6362C90.6353 31.8828 90.1818 32.0062 89.7284 32.0062C88.5494 32.0062 87.8743 31.369 87.8743 30.1562V27.5149H86.9876V26.4872H87.8743V25.2333H89.1339ZM126.709 26.3844C128.382 26.3844 129.581 27.5457 129.581 29.1901C129.581 30.8345 128.382 32.0062 126.709 32.0062C125.057 32.0062 123.848 30.8345 123.848 29.1901C123.848 27.5457 125.057 26.3844 126.709 26.3844ZM72.873 26.3844C74.445 26.3844 75.5937 27.5046 75.5937 29.221C75.5937 29.3237 75.5836 29.4779 75.5735 29.6012H71.3515C71.5026 30.4029 72.1576 30.9168 73.0947 30.9168C73.6993 30.9168 74.1729 30.7215 74.5558 30.3207L75.2309 31.112C74.7473 31.6978 73.9915 32.0062 73.0645 32.0062C71.2608 32.0062 70.0919 30.8243 70.0919 29.1901C70.0919 27.556 71.2708 26.3844 72.873 26.3844ZM132.01 26.446V29.406C132.01 30.4029 132.473 30.8756 133.269 30.8756C134.146 30.8756 134.74 30.3207 134.74 29.221V26.446H136V31.9342H134.801V31.2354C134.398 31.739 133.763 32.0062 133.068 32.0062C131.687 32.0062 130.75 31.2354 130.75 29.5807V26.446H132.01ZM60.7811 26.3844C62.3531 26.3844 63.5018 27.5046 63.5018 29.221C63.5018 29.3237 63.4917 29.4779 63.4817 29.6012H59.2596C59.4107 30.4029 60.0657 30.9168 61.0028 30.9168C61.6074 30.9168 62.081 30.7215 62.4639 30.3207L63.1391 31.112C62.6554 31.6978 61.8996 32.0062 60.9726 32.0062C59.1689 32.0062 58 30.8243 58 29.1901C58 27.556 59.179 26.3844 60.7811 26.3844ZM93.235 24.3083V27.0832C93.6482 26.631 94.283 26.3844 95.0287 26.3844C96.3185 26.3844 97.2757 27.1346 97.2757 28.7893V31.9342H96.0162V28.9538C96.0162 27.9774 95.5426 27.5046 94.7364 27.5046C93.8396 27.5046 93.235 28.0596 93.235 29.1593V31.9342H91.9755V24.3083H93.235ZM104.843 26.3844C106.133 26.3844 107.09 27.1346 107.09 28.7893V31.9342H105.831V28.9538C105.831 27.9774 105.357 27.5046 104.551 27.5046C103.654 27.5046 103.05 28.0596 103.05 29.1593V31.9342H101.79V26.446H102.989V27.1552C103.402 26.6516 104.057 26.3844 104.843 26.3844ZM100.137 26.446V31.9342H98.8779V26.446H100.137ZM65.1443 26.446L66.817 30.5159L68.5401 26.446H69.7493L67.4417 31.9342H66.1419L63.8343 26.446H65.1443ZM79.9165 26.3844V27.6074C79.8057 27.5868 79.715 27.5766 79.6243 27.5766C78.667 27.5766 78.0625 28.1521 78.0625 29.2724V31.9342H76.8029V26.446H78.002V27.2477C78.3647 26.6721 79.0197 26.3844 79.9165 26.3844ZM126.709 27.4738C125.803 27.4738 125.117 28.1418 125.117 29.1901C125.117 30.2384 125.803 30.9065 126.709 30.9065C127.626 30.9065 128.312 30.2384 128.312 29.1901C128.312 28.1418 127.626 27.4738 126.709 27.4738ZM111.161 27.4738C110.204 27.4738 109.519 28.1007 109.519 29.0257C109.519 29.9609 110.204 30.5981 111.161 30.5981C112.108 30.5981 112.794 29.9609 112.794 29.0257C112.794 28.1007 112.108 27.4738 111.161 27.4738ZM72.873 27.4121C72.0568 27.4121 71.4623 27.9466 71.3414 28.7482H74.3946C74.2938 27.9568 73.6993 27.4121 72.873 27.4121ZM60.7811 27.4121C59.9649 27.4121 59.3704 27.9466 59.2495 28.7482H62.3027C62.2019 27.9568 61.6074 27.4121 60.7811 27.4121ZM99.5127 24C99.9763 24 100.319 24.3186 100.319 24.74C100.319 25.1922 99.9863 25.5416 99.5127 25.5416C99.0492 25.5416 98.7066 25.2025 98.7066 24.7708C98.7066 24.3392 99.0492 24 99.5127 24ZM55.408 0C55.7994 0 56.083 0.414842 55.9779 0.834067L55.3247 3.43795C55.2534 3.72218 55.0204 3.91876 54.7548 3.91876H34.753V17.8237H50.9351C51.3268 17.8237 51.6104 18.2388 51.505 18.658L50.786 21.5194C50.7148 21.8036 50.4817 22 50.2162 22H29.5917C29.2649 22 29 21.7057 29 21.3426V0.657436C29 0.294313 29.2649 0 29.5917 0H55.408ZM26.3854 0C26.7249 0 27 0.294313 27 0.657436V1.93067C27 2.02337 26.9617 2.11103 26.8951 2.17041L9.15897 17.9881H26.3854C26.7249 17.9881 27 18.2826 27 18.6455V21.3426C27 21.7057 26.7249 22 26.3854 22H0.614558C0.275117 22 0 21.7057 0 21.3426V19.9521C0 19.8603 0.0376928 19.7733 0.103246 19.7137L17.5772 3.89662H0.962399C0.622958 3.89662 0.34784 3.60231 0.34784 3.23919V0.657436C0.34784 0.294313 0.622958 0 0.962399 0H26.3854ZM110.852 0C113.207 0 114.796 0.349756 115.623 1.04992C116.471 1.77376 116.895 3.05532 116.895 4.92179V5.73525C116.895 6.09838 116.627 6.39269 116.298 6.39269H111.937C111.607 6.39269 111.34 6.09838 111.34 5.73525V4.036H94.258C93.928 4.036 93.6606 4.33031 93.6606 4.69344V17.1192C93.6606 17.4821 93.928 17.7766 94.258 17.7766H110.742C111.072 17.7766 111.34 17.4821 111.34 17.1192V13.1115H107.385C107.229 13.1115 107.101 12.9719 107.101 12.7996V9.36386C107.101 9.19161 107.229 9.0518 107.385 9.0518H116.716C116.873 9.0518 117 9.19161 117 9.36386V16.7971C117 18.8046 116.492 20.1802 115.644 20.9034C114.817 21.6511 113.227 22 110.852 22H94.0218C91.6684 22 90.0776 21.6511 89.2302 20.9034C88.4036 20.1802 88 18.8046 88 16.7971V5.17928C88 3.17432 88.4036 1.81934 89.2302 1.07228C90.0776 0.349756 91.6684 0 94.0218 0H110.852ZM142.41 0C142.736 0 143 0.294313 143 0.657436V3.21399C143 3.57733 142.736 3.87142 142.41 3.87142H124.653V17.8939H142.41C142.736 17.8939 143 18.188 143 18.5513V21.3426C143 21.7057 142.736 22 142.41 22H119.59C119.264 22 119 21.7057 119 21.3426V0.657436C119 0.294313 119.264 0 119.59 0H142.41ZM77.4367 0L77.6921 0.0046854C83.024 0.1687 86.1185 5.02837 84.6242 10.9999C83.1061 17.0666 79.2365 21.9996 69.6769 21.9996L56.0691 22C55.6751 22 55.3894 21.5856 55.4943 21.1662L57.5191 13.0742H51.5966C51.2026 13.0742 50.9169 12.6596 51.0219 12.2404L51.7302 9.40913C51.8016 9.12381 52.037 8.92607 52.3052 8.92607H58.5571L60.6698 0.483285C60.7411 0.197747 60.9763 0 61.2447 0H77.4367ZM74.4859 4H64.3798L61 18H70.4235C76.092 18 78.7165 14.86 79.6483 10.9999C80.5801 7.13978 79.9183 4 74.4859 4ZM46.4281 8C46.8065 8 47.0802 8.40918 46.9787 8.82202L46.3129 11.5265C46.2439 11.8065 46.0189 12 45.7625 12H37.5715C37.2558 12 37 11.7102 37 11.3522V8.64777C37 8.2902 37.2558 8 37.5715 8H46.4281ZM142.391 8C142.727 8 143 8.29229 143 8.65292V11.3471C143 11.7079 142.727 12 142.391 12H127.609C127.273 12 127 11.7079 127 11.3471V8.65292C127 8.29229 127.273 8 127.609 8H142.391ZM149.934 0C149.961 0 149.985 0.0259196 149.995 0.0627909L150 0.102758C150 0.0460792 150.041 0 150.092 0H151.078C151.118 0 151.154 0.0292048 151.166 0.0720387L151.994 3.03169H152.005L152.835 0.0718222C152.847 0.0292046 152.882 0 152.922 0H153.908C153.959 0 154 0.0460792 154 0.102758V3.89746C154 3.95392 153.959 4 153.908 4H153.407C153.357 4 153.315 3.95392 153.315 3.89746V0.698756H153.305L152.363 3.92926C152.351 3.97123 152.316 4 152.276 4H151.724C151.685 4 151.65 3.97123 151.637 3.92926L150.695 0.698756L150.686 0.710438V3.89746C150.686 3.95392 150.645 4 150.594 4H150.092C150.041 4 150 3.95392 150 3.89746V0.527L149.995 0.567696C149.985 0.604597 149.961 0.630395 149.934 0.630395H149.326C149.289 0.630395 149.259 0.676474 149.259 0.73337V3.89746C149.259 3.95392 149.23 4 149.193 4H148.808C148.771 4 148.741 3.95392 148.741 3.89746V0.73337C148.741 0.676474 148.712 0.630395 148.675 0.630395H148.066C148.03 0.630395 148 0.584532 148 0.527637V0.102758C148 0.0460792 148.03 0 148.066 0H149.934Z"
      />
    </svg>